<?xml version="1.0" encoding="UTF-8"?>
<svg width="500" height="500" version="1.1" viewBox="0 0 500.00001 500.00001" xmlns="http://www.w3.org/2000/svg">
 <defs>
  <filter id="i" x="-.12" y="-.12" width="1.24" height="1.24" color-interpolation-filters="sRGB">
   <feGaussianBlur stdDeviation="2.75"/>
  </filter>
  <linearGradient id="j" x1="403" x2="288" y1="721.36" y2="1054.4" gradientUnits="userSpaceOnUse">
   <stop stop-color="#f2ab40" offset="0"/>
   <stop stop-color="#ffd79a" offset="1"/>
  </linearGradient>
  <linearGradient id="k" x1="229" x2="230" y1="720.86" y2="845.86" gradientTransform="translate(-2)" gradientUnits="userSpaceOnUse">
   <stop stop-color="#fbb94e" offset="0"/>
   <stop stop-color="#ffd79a" stop-opacity="0" offset="1"/>
  </linearGradient>
  <linearGradient id="l" x1="229" x2="225.7" y1="720.86" y2="798.52" gradientTransform="matrix(.46467 0 0 .46467 277.28 302.63)" gradientUnits="userSpaceOnUse">
   <stop stop-color="#eb9a1c" offset="0"/>
   <stop stop-color="#f3ad44" offset="1"/>
  </linearGradient>
  <linearGradient id="m" x1="229" x2="227.85" y1="720.86" y2="785.6" gradientTransform="matrix(.46467 0 0 .46467 27.283 245.63)" gradientUnits="userSpaceOnUse">
   <stop stop-color="#e99411" offset="0"/>
   <stop stop-color="#f2ab40" offset="1"/>
  </linearGradient>
  <linearGradient id="n" x2="500" y1="367.5" y2="407.5" gradientUnits="userSpaceOnUse">
   <stop stop-color="#f6ae43" offset="0"/>
   <stop stop-color="#ca7a00" offset="1"/>
  </linearGradient>
  <linearGradient id="o" x1="210" x2="434" y1="844.36" y2="846.36" gradientUnits="userSpaceOnUse">
   <stop stop-color="#eea83c" offset="0"/>
   <stop stop-color="#c98216" offset="1"/>
  </linearGradient>
  <linearGradient id="p" x1="401" x2="500" y1="315.71" y2="319.71" gradientUnits="userSpaceOnUse">
   <stop stop-color="#e8a542" offset="0"/>
   <stop stop-color="#d38615" offset="1"/>
  </linearGradient>
 </defs>
 <g transform="translate(0 -552.36)">
  <rect y="552.36" width="500" height="500" fill="url(#j)"/>
  <path d="m226.5 719.36a24.5 24.5 0 0 0 -22.842 15.715 24.5 24.5 0 0 0 -11.158 -2.7148 24.5 24.5 0 0 0 -18.5 8.4609 24.5 24.5 0 0 0 -12.5 -3.4609 24.5 24.5 0 0 0 -23.186 16.654 24.5 24.5 0 0 0 -12.814 -3.6543 24.5 24.5 0 0 0 -15.949 5.9414 24.5 24.5 0 0 0 -17.051 -6.9414 24.5 24.5 0 0 0 -20.777 11.574 24.5 24.5 0 0 0 -14.223 -4.5742 24.5 24.5 0 0 0 -23.416 17.295 24.5 24.5 0 0 0 -3.584 -0.29492 24.5 24.5 0 0 0 -24.5 24.5 24.5 24.5 0 0 0 24.5 24.5 24.5 24.5 0 0 0 2.5 -0.1543v26.154h425v-25.943a24.5 24.5 0 0 0 15 -22.557 24.5 24.5 0 0 0 -24.5 -24.5 24.5 24.5 0 0 0 -12.545 3.4883 24.5 24.5 0 0 0 -23.455 -17.488 24.5 24.5 0 0 0 -19.988 10.359 24.5 24.5 0 0 0 -4.0117 -0.35938 24.5 24.5 0 0 0 -13.797 4.2852 24.5 24.5 0 0 0 -21.203 -12.285 24.5 24.5 0 0 0 -13.514 4.082 24.5 24.5 0 0 0 -20.486 -11.082 24.5 24.5 0 0 0 -12.824 3.6484 24.5 24.5 0 0 0 -23.176 -16.648 24.5 24.5 0 0 0 -9.8926 2.1191 24.5 24.5 0 0 0 -21.107 -12.119 24.5 24.5 0 0 0 -3.7539 0.30664 24.5 24.5 0 0 0 -22.246 -14.307z" fill="url(#k)"/>
  <g transform="matrix(1.4727 0 0 1.4727 -467.84 -208.24)">
   <circle cx="583.5" cy="666.86" r="27.5" fill="#fea" filter="url(#i)"/>
   <circle cx="583.5" cy="666.86" r="27.5" fill="#fff2c0"/>
  </g>
  <path d="m119 832.36 137-58 178 49-9 81-291 14z" fill="url(#o)" fill-rule="evenodd"/>
  <path transform="translate(0 552.36)" d="m452 235l-161 61-2 98 211 10.412v-152.81l-48-16.602z" fill="url(#p)" fill-rule="evenodd"/>
  <path transform="translate(0 552.36)" d="m256 222l-99.764 42.236-2.127 55.885c1.8534-6.4848 15.472-22.868 100.89-38.121 28-5-11-25-8-40s9-20 9-20zm-101.89 98.121c-0.52437 1.8347-0.10938 2.8789-0.10938 2.8789l0.10938-2.8789z" fill="#a40" fill-rule="evenodd"/>
  <path transform="translate(0 552.36)" d="m452 235l-136.42 51.688 59.42 81.312s63-47 61-60-15-21-9-40 25-33 25-33z" fill="#a40" fill-rule="evenodd"/>
  <path transform="translate(0 552.36)" d="m98 235l-98 36.135v228.87h500v-186.78l-402-78.217z" fill="url(#n)" fill-rule="evenodd"/>
  <path transform="translate(0 552.36)" d="m98 235-98 36.135v106.8c20.132-24.9 36.308-52.404 38.058-57.878 5.8555-18.312 5.9422-38.058 14.942-50.058s45-35 45-35z" fill="#a40" fill-rule="evenodd"/>
  <path d="m383.46 636.89a11.384 11.384 0 0 0 -10.613 7.3027 11.384 11.384 0 0 0 -5.1855 -1.2617 11.384 11.384 0 0 0 -8.5957 3.9316 11.384 11.384 0 0 0 -5.8086 -1.6094 11.384 11.384 0 0 0 -10.773 7.7383 11.384 11.384 0 0 0 -5.9551 -1.6973 11.384 11.384 0 0 0 -7.4102 2.7617 11.384 11.384 0 0 0 -7.9238 -3.2266 11.384 11.384 0 0 0 -9.6543 5.3789 11.384 11.384 0 0 0 -6.6094 -2.127 11.384 11.384 0 0 0 -10.881 8.0371 11.384 11.384 0 0 0 -1.6641 -0.13672 11.384 11.384 0 0 0 -10.217 6.3789h214.15a11.384 11.384 0 0 0 -9.6992 -5.4492 11.384 11.384 0 0 0 -5.8281 1.6211 11.384 11.384 0 0 0 -10.9 -8.127 11.384 11.384 0 0 0 -9.2871 4.8145 11.384 11.384 0 0 0 -1.8633 -0.16797 11.384 11.384 0 0 0 -6.4121 1.9922 11.384 11.384 0 0 0 -9.8516 -5.709 11.384 11.384 0 0 0 -6.2793 1.8965 11.384 11.384 0 0 0 -9.5195 -5.1504 11.384 11.384 0 0 0 -5.959 1.6953 11.384 11.384 0 0 0 -10.77 -7.7344 11.384 11.384 0 0 0 -4.5976 0.98438 11.384 11.384 0 0 0 -9.8066 -5.6309 11.384 11.384 0 0 0 -1.7441 0.14062 11.384 11.384 0 0 0 -10.338 -6.6465z" fill="url(#l)"/>
  <path d="m133.46 579.89a11.384 11.384 0 0 0 -10.613 7.3027 11.384 11.384 0 0 0 -5.1855 -1.2617 11.384 11.384 0 0 0 -8.5957 3.9316 11.384 11.384 0 0 0 -5.8086 -1.6094 11.384 11.384 0 0 0 -10.773 7.7383 11.384 11.384 0 0 0 -5.9551 -1.6973 11.384 11.384 0 0 0 -7.4102 2.7617 11.384 11.384 0 0 0 -7.9238 -3.2266 11.384 11.384 0 0 0 -9.6543 5.3789 11.384 11.384 0 0 0 -6.6094 -2.127 11.384 11.384 0 0 0 -10.881 8.0371 11.384 11.384 0 0 0 -1.6641 -0.13672 11.384 11.384 0 0 0 -9.6641 5.3789h212.91a11.384 11.384 0 0 0 -9.0117 -4.4492 11.384 11.384 0 0 0 -5.8281 1.6211 11.384 11.384 0 0 0 -10.9 -8.127 11.384 11.384 0 0 0 -9.2871 4.8145 11.384 11.384 0 0 0 -1.8633 -0.16797 11.384 11.384 0 0 0 -6.4121 1.9922 11.384 11.384 0 0 0 -9.8516 -5.709 11.384 11.384 0 0 0 -6.2793 1.8965 11.384 11.384 0 0 0 -9.5195 -5.1504 11.384 11.384 0 0 0 -5.959 1.6953 11.384 11.384 0 0 0 -10.77 -7.7344 11.384 11.384 0 0 0 -4.5976 0.98438 11.384 11.384 0 0 0 -9.8066 -5.6309 11.384 11.384 0 0 0 -1.7441 0.14062 11.384 11.384 0 0 0 -10.338 -6.6465z" fill="url(#m)"/>
 </g>
</svg>
