<svg height="512pt" viewBox="0 0 512 512" width="512pt" xmlns="http://www.w3.org/2000/svg"><path d="m388.628906 421h-58.628906v91h60v-76c0-5.066406-.65625-10.046875-1.371094-15zm0 0"/><path d="m360 211h-119.664062l-30.246094-211c-11.441406 15.429688-49.964844 42.691406-58.582032 103.050781-5.167968 36.210938 3.164063 104.183594 28.492188 137.964844v270.984375h120v-91c0-16.539062 13.460938-30 30-30h152l30-90-122-30zm-30 90h-60v-30h60zm0 0"/><path d="m60 376c0-31.363281 13.902344-60.851562 38.113281-80.902344 14.988281-12.410156 33-19.609375 51.886719-22.351562v-22.621094c-9.8125-16.089844-16.9375-36.085938-21.789062-56.835938-76.433594 27.6875-128.210938 99.355469-128.210938 182.710938v136h60zm0 0"/><path d="m150 302.773438c-11.851562 2.40625-23.046875 7.414062-32.753906 15.4375-17.3125 14.34375-27.246094 35.40625-27.246094 57.789062v136h60zm0 0"/><path d="m270 0v181h60v-83.925781c0-41.382813-22.984375-78.574219-60-97.074219zm0 0"/></svg>